<svg width="18" height="18" viewBox="0 0 18 18" fill="none" xmlns="http://www.w3.org/2000/svg">
<path d="M8.99996 0.666672C4.39996 0.666672 0.666626 4.40001 0.666626 9.00001C0.666626 13.6 4.39996 17.3333 8.99996 17.3333C13.6 17.3333 17.3333 13.6 17.3333 9.00001C17.3333 4.40001 13.6 0.666672 8.99996 0.666672ZM12.3333 9.83334H9.83329V12.3333C9.83329 12.7917 9.45829 13.1667 8.99996 13.1667C8.54163 13.1667 8.16663 12.7917 8.16663 12.3333V9.83334H5.66663C5.20829 9.83334 4.83329 9.45834 4.83329 9.00001C4.83329 8.54167 5.20829 8.16667 5.66663 8.16667H8.16663V5.66667C8.16663 5.20834 8.54163 4.83334 8.99996 4.83334C9.45829 4.83334 9.83329 5.20834 9.83329 5.66667V8.16667H12.3333C12.7916 8.16667 13.1666 8.54167 13.1666 9.00001C13.1666 9.45834 12.7916 9.83334 12.3333 9.83334Z" fill="#FAFAFA"/>
</svg>
